# xmcd
#
# Track frame offsets:
#	150
#	13001
#	25831
#	39644
#	52473
#	65736
#	78683
#	92942
#	105015
#	129629
#	141827
#	155731
#	168905
#	180228
#	194040
#	205306
#	217953
#	232835
#	245550
#	256489
#	271099
#	285136
#	298676
#	310726
#
# Disc length: 4331 seconds
#
# Revision: 1
# Processed by: cddbd v1.5.2PL0 Copyright (c) Steve Scherf et al.
# Submitted via: audiograbber 1.83.01
#
DISCID=5e10e918
DTITLE=Muddy Waters - Charly Blues masterworks Volume 01
DYEAR=2009
DGENRE=Blues
TTITLE0=I'm Your Hoochie Coochie Man
TTITLE1=I Just Want To Make Love To You
TTITLE2=I'm Ready
TTITLE3=Got My Mojo Working
TTITLE4=Mannish Boy
TTITLE5=Forty Days and Forty Nights
TTITLE6=Rock Me
TTITLE7=Trouble, No More
TTITLE8=Rollin and Tumblin'
TTITLE9=I Can't Be Satisfied
TTITLE10=Close To You
TTITLE11=Don't Go No Farther
TTITLE12=Sugar Sweet
TTITLE13=Mad Love
TTITLE14=I Want To Be Loved
TTITLE15=Baby, Pleae Don't Go
TTITLE16=She's Nineteen Years Old
TTITLE17=I Love The Life I Live, I Live The Life I Love
TTITLE18=Diamonds At Your Feet
TTITLE19=Just To Be With You
TTITLE20=My Eyes (Keep Me In Trouble)
TTITLE21=Young Fashioned Ways
TTITLE22=Long Distance Call
TTITLE23=I Feel Like Going Home
EXTD=
EXTT0=
EXTT1=
EXTT2=
EXTT3=
EXTT4=
EXTT5=
EXTT6=
EXTT7=
EXTT8=
EXTT9=
EXTT10=
EXTT11=
EXTT12=
EXTT13=
EXTT14=
EXTT15=
EXTT16=
EXTT17=
EXTT18=
EXTT19=
EXTT20=
EXTT21=
EXTT22=
EXTT23=
PLAYORDER=
